<?xml version="1.0" encoding="UTF-8" standalone="no"?>
<!DOCTYPE svg PUBLIC "-//W3C//DTD SVG 1.1//EN" "http://www.w3.org/Graphics/SVG/1.1/DTD/svg11.dtd">
<!-- Created with Vectornator (http://vectornator.io/) -->
<svg height="100%" stroke-miterlimit="10" style="fill-rule:nonzero;clip-rule:evenodd;stroke-linecap:round;stroke-linejoin:round;" version="1.1" viewBox="1362.76 1060.6 517.679 587.863" width="100%" xml:space="preserve" xmlns="http://www.w3.org/2000/svg" xmlns:vectornator="http://vectornator.io" xmlns:xlink="http://www.w3.org/1999/xlink">
<defs>
<filter color-interpolation-filters="sRGB" filterUnits="userSpaceOnUse" height="331.994" id="Filter" width="517.014" x="1362.76" y="1187.92">
<feDropShadow dx="-0" dy="0" flood-color="#1792a8" flood-opacity="1" in="SourceGraphic" result="Shadow" stdDeviation="13"/>
</filter>
<filter color-interpolation-filters="sRGB" filterUnits="userSpaceOnUse" height="355.634" id="Filter_2" width="501.502" x="1368.79" y="1174.29">
<feDropShadow dx="-0" dy="0" flood-color="#1792a8" flood-opacity="1" in="SourceGraphic" result="Shadow" stdDeviation="13"/>
</filter>
<filter color-interpolation-filters="sRGB" filterUnits="userSpaceOnUse" height="578.958" id="Filter_3" width="161.695" x="1540.06" y="1063.11">
<feDropShadow dx="-0" dy="0" flood-color="#1792a8" flood-opacity="1" in="SourceGraphic" result="Shadow" stdDeviation="13"/>
</filter>
<filter color-interpolation-filters="sRGB" filterUnits="userSpaceOnUse" height="73.685" id="Filter_4" width="73.685" x="1806.75" y="1190.96">
<feDropShadow dx="-0" dy="0" flood-color="#b7dfe6" flood-opacity="1" in="SourceGraphic" result="Shadow" stdDeviation="8.5"/>
</filter>
<filter color-interpolation-filters="sRGB" filterUnits="userSpaceOnUse" height="73.6911" id="Filter_5" width="73.6911" x="1365.89" y="1180.11">
<feDropShadow dx="-0" dy="0" flood-color="#b7dfe6" flood-opacity="1" in="SourceGraphic" result="Shadow" stdDeviation="8.5"/>
</filter>
<filter color-interpolation-filters="sRGB" filterUnits="userSpaceOnUse" height="73.6911" id="Filter_6" width="73.6911" x="1800.24" y="1455.27">
<feDropShadow dx="-0" dy="0" flood-color="#b7dfe6" flood-opacity="1" in="SourceGraphic" result="Shadow" stdDeviation="8.5"/>
</filter>
<filter color-interpolation-filters="sRGB" filterUnits="userSpaceOnUse" height="73.6904" id="Filter_7" width="73.6904" x="1583.49" y="1060.6">
<feDropShadow dx="-0" dy="0" flood-color="#b7dfe6" flood-opacity="1" in="SourceGraphic" result="Shadow" stdDeviation="8.5"/>
</filter>
<filter color-interpolation-filters="sRGB" filterUnits="userSpaceOnUse" height="73.6904" id="Filter_8" width="73.6904" x="1582.65" y="1574.78">
<feDropShadow dx="-0" dy="0" flood-color="#b7dfe6" flood-opacity="1" in="SourceGraphic" result="Shadow" stdDeviation="8.5"/>
</filter>
<filter color-interpolation-filters="sRGB" filterUnits="userSpaceOnUse" height="73.6904" id="Filter_9" width="73.6904" x="1363.78" y="1442.12">
<feDropShadow dx="-0" dy="0" flood-color="#b7dfe6" flood-opacity="1" in="SourceGraphic" result="Shadow" stdDeviation="8.5"/>
</filter>
<filter color-interpolation-filters="sRGB" filterUnits="userSpaceOnUse" height="99.2" id="Filter_10" width="99.2" x="1571.31" y="1302.99">
<feDropShadow dx="-0" dy="0" flood-color="#9bccd5" flood-opacity="1" in="SourceGraphic" result="Shadow" stdDeviation="8.5"/>
</filter>
</defs>
<clipPath id="ArtboardFrame">
<rect height="587.863" width="517.679" x="1362.76" y="1060.6"/>
</clipPath>
<g clip-path="url(#ArtboardFrame)" id="Layer" vectornator:layerName="Layer">
<g opacity="1" vectornator:layerName="Group 6">
<g opacity="1" vectornator:layerName="Group 4">
<path d="M1827.9 1220.43C1790.19 1219.7 1698.31 1255.31 1597.71 1311.69C1560.06 1332.8 1525.5 1354.39 1496.03 1374.84C1492.19 1377.5 1488.44 1380.13 1484.77 1382.76C1424.08 1426.2 1388.14 1463.42 1396.44 1478.24C1396.93 1479.12 1398.6 1481.07 1400.75 1482.53C1402.28 1483.57 1404.11 1484.28 1405.45 1484.83C1405.69 1484.93 1405.92 1485.02 1406.12 1485.11C1407.64 1485.76 1410.12 1486.51 1412.2 1486.84C1414.16 1487.16 1415.77 1487.09 1415.77 1487.09C1415.77 1487.09 1405.26 1484.73 1406.96 1485.14C1412.81 1486.57 1420.46 1486.96 1421.06 1487.16C1421.45 1487.3 1403.88 1483.44 1404.3 1483.56C1403.87 1483.2 1415.64 1486.41 1415.93 1485.54C1416 1485.34 1415.05 1484.84 1413.57 1484.8C1412.13 1484.75 1410.21 1484.39 1408.78 1483.7C1406.09 1482.39 1404.84 1479.69 1404.72 1479.49C1392.33 1457.53 1480.09 1393.11 1602.26 1324.15C1724.43 1255.19 1832.33 1209.58 1844.73 1231.54C1844.99 1232 1845.47 1232.9 1845.58 1233.9C1845.67 1234.68 1845.4 1235.59 1845.48 1236.02C1845.5 1236.13 1845.7 1234.49 1845.71 1234.6C1845.84 1233.92 1845.84 1236.85 1845.88 1236.21C1845.91 1235.71 1846.08 1234.27 1846.08 1234.27C1846.08 1234.27 1846.15 1233.1 1846.11 1232.48C1845.97 1230.28 1845.36 1227.92 1844.81 1226.94C1842.44 1222.71 1836.6 1220.6 1827.9 1220.43ZM1403.32 1483.24C1403.69 1483.56 1405.74 1484.47 1406.83 1485.02C1407.96 1485.59 1409.12 1486.11 1409.6 1486.25C1438.36 1494.62 1536.2 1457.3 1645.23 1395.76C1687.52 1371.89 1718.53 1351.89 1751.08 1329.49C1766.3 1319.02 1773.81 1314.15 1785.32 1304.36C1785.89 1303.88 1805.21 1287.72 1813.18 1280.4C1827.99 1266.78 1837.66 1254.9 1840.39 1251.28C1843.31 1247.41 1846.63 1242.16 1847.24 1239.54C1847.57 1238.11 1845.53 1238.82 1845.78 1237.83C1845.92 1237.26 1845.36 1238.07 1845.52 1237.43C1845.64 1236.96 1845.67 1237.18 1845.79 1236.29C1845.94 1235.19 1846 1234.24 1845.9 1233.28C1845.88 1233.15 1845.72 1234.8 1845.71 1234.68C1845.66 1234.91 1845.62 1235.1 1845.57 1235.34C1838.88 1264.6 1756.32 1333.24 1645.06 1395.6C1627.74 1405.31 1612.46 1413.42 1595.68 1421.9C1564.06 1437.9 1531.87 1452.16 1504.31 1462.61C1482.03 1471.07 1460.04 1477.38 1443.84 1481.38C1425.83 1485.82 1417.53 1485.67 1408.13 1484.34C1407.59 1484.27 1406.06 1483.52 1405.55 1483.43C1404.75 1483.27 1404.03 1483.44 1403.32 1483.24Z" fill="#1792a8" fill-rule="nonzero" filter="url(#Filter)" stroke="none" vectornator:layerName="Curve 1" vectornator:shadowAngle="1.5708" vectornator:shadowColor="#1792a8" vectornator:shadowOffset="0" vectornator:shadowOpacity="1" vectornator:shadowRadius="26"/>
<path d="M1405.02 1233.21C1422.17 1266.8 1496.94 1330.98 1594.14 1393.05C1630.51 1416.28 1665.86 1436.55 1697.81 1452.88C1701.97 1455.01 1706.06 1457.07 1710.1 1459.07C1777.05 1492.06 1826.83 1506.17 1835.97 1491.86C1836.51 1491.01 1837.44 1488.62 1837.72 1486.04C1837.91 1484.2 1837.68 1482.25 1837.53 1480.81C1837.5 1480.55 1837.47 1480.31 1837.46 1480.08C1837.31 1478.44 1836.8 1475.9 1836.12 1473.91C1835.47 1472.03 1834.65 1470.64 1834.65 1470.64C1834.65 1470.64 1837.53 1481.03 1837.09 1479.33C1835.59 1473.5 1832.32 1466.57 1832.22 1465.94C1832.15 1465.54 1837.05 1482.85 1836.95 1482.43C1836.83 1482.97 1834.11 1471.08 1833.21 1471.23C1833 1471.27 1833.01 1472.34 1833.67 1473.67C1834.31 1474.96 1834.89 1476.82 1834.96 1478.4C1835.08 1481.4 1833.29 1483.77 1833.17 1483.97C1819.66 1505.26 1721.44 1458.31 1602.97 1383.16C1484.51 1308.01 1393.35 1234.43 1406.86 1213.14C1407.15 1212.68 1407.71 1211.83 1408.54 1211.26C1409.19 1210.82 1410.12 1210.63 1410.46 1210.36C1410.55 1210.29 1409.01 1210.89 1409.1 1210.82C1408.44 1211.03 1411.02 1209.65 1410.44 1209.92C1409.99 1210.12 1408.64 1210.65 1408.64 1210.65C1408.64 1210.65 1407.57 1211.14 1407.04 1211.47C1405.17 1212.64 1403.38 1214.29 1402.77 1215.23C1400.16 1219.32 1401.06 1225.46 1405.02 1233.21ZM1837.13 1483.44C1837.24 1482.95 1837.08 1480.72 1837.05 1479.5C1837.01 1478.24 1836.92 1476.97 1836.82 1476.48C1830.62 1447.18 1751.53 1378.54 1645.81 1311.48C1604.8 1285.46 1572.53 1267.57 1537.42 1249.45C1521.01 1240.98 1513.17 1236.65 1499.11 1231.13C1498.41 1230.85 1475.05 1221.44 1464.83 1217.88C1445.84 1211.25 1430.8 1208.34 1426.32 1207.64C1421.53 1206.89 1415.33 1206.44 1412.74 1207.14C1411.32 1207.53 1412.9 1208.99 1411.92 1209.24C1411.34 1209.38 1412.33 1209.49 1411.68 1209.65C1411.22 1209.77 1411.39 1209.64 1410.55 1209.95C1409.51 1210.34 1408.64 1210.73 1407.84 1211.28C1407.74 1211.35 1409.27 1210.71 1409.17 1210.79C1409.4 1210.72 1409.58 1210.67 1409.82 1210.6C1438.77 1202.68 1538.25 1243.06 1645.76 1311.7C1662.49 1322.39 1676.85 1332.03 1692.25 1342.82C1721.27 1363.14 1749.05 1384.79 1771.27 1404.15C1789.25 1419.8 1805.19 1436.2 1816.36 1448.6C1828.78 1462.38 1832.57 1469.76 1835.84 1478.68C1836.02 1479.18 1836.09 1480.89 1836.24 1481.38C1836.49 1482.16 1836.97 1482.71 1837.13 1483.44Z" fill="#1792a8" fill-rule="nonzero" filter="url(#Filter_2)" stroke="none" vectornator:layerName="Curve 2" vectornator:shadowAngle="1.5708" vectornator:shadowColor="#1792a8" vectornator:shadowOffset="0" vectornator:shadowOpacity="1" vectornator:shadowRadius="26"/>
<path d="M1633.56 1598.15C1652.99 1565.82 1667.91 1468.43 1669.17 1353.11C1669.64 1309.95 1668.15 1269.23 1665.11 1233.48C1664.72 1228.82 1664.31 1224.26 1663.86 1219.78C1656.45 1145.5 1642.09 1095.79 1625.11 1095.61C1624.1 1095.6 1621.58 1096.07 1619.25 1097.2C1617.58 1098.01 1616.05 1099.24 1614.91 1100.13C1614.7 1100.29 1614.51 1100.44 1614.33 1100.58C1613.01 1101.57 1611.13 1103.35 1609.8 1104.98C1608.54 1106.52 1607.8 1107.96 1607.8 1107.96C1607.8 1107.96 1615.09 1100.02 1613.88 1101.29C1609.73 1105.64 1605.58 1112.08 1605.1 1112.5C1604.79 1112.77 1616.89 1099.47 1616.58 1099.77C1617.11 1099.58 1608.46 1108.18 1609.07 1108.86C1609.21 1109.02 1610.11 1108.45 1610.89 1107.19C1611.65 1105.96 1612.92 1104.48 1614.22 1103.59C1616.7 1101.9 1619.66 1102.16 1619.89 1102.16C1645.11 1102.36 1657.22 1210.55 1656.11 1350.84C1654.99 1491.13 1640.76 1607.41 1615.55 1607.21C1615.01 1607.2 1613.99 1607.17 1613.07 1606.77C1612.35 1606.46 1611.7 1605.77 1611.29 1605.62C1611.18 1605.58 1612.5 1606.57 1612.4 1606.53C1612.92 1606.98 1610.39 1605.52 1610.92 1605.87C1611.34 1606.15 1612.5 1607.01 1612.5 1607.01C1612.5 1607.01 1613.48 1607.66 1614.04 1607.93C1616.02 1608.91 1618.37 1609.55 1619.49 1609.57C1624.34 1609.62 1629.08 1605.61 1633.56 1598.15ZM1617.35 1099.08C1616.88 1099.24 1615.07 1100.56 1614.05 1101.24C1613 1101.93 1611.97 1102.68 1611.61 1103.02C1590.02 1123.78 1573.6 1227.21 1572.61 1352.41C1572.23 1400.97 1574.11 1437.82 1577.3 1477.2C1578.8 1495.61 1579.28 1504.55 1582.02 1519.41C1582.16 1520.14 1586.53 1544.95 1588.91 1555.5C1593.33 1575.13 1598.81 1589.43 1600.59 1593.6C1602.49 1598.06 1605.39 1603.56 1607.35 1605.39C1608.43 1606.39 1608.83 1604.27 1609.56 1604.98C1609.99 1605.39 1609.56 1604.49 1610.04 1604.96C1610.38 1605.29 1610.18 1605.21 1610.89 1605.76C1611.77 1606.44 1612.56 1606.96 1613.45 1607.35C1613.57 1607.4 1612.22 1606.44 1612.33 1606.49C1612.15 1606.33 1612.01 1606.2 1611.83 1606.04C1589.8 1585.66 1571.44 1479.88 1572.83 1352.33C1573.05 1332.48 1573.64 1315.19 1574.64 1296.41C1576.54 1261.04 1580.22 1226.01 1584.89 1196.91C1588.67 1173.38 1594.15 1151.17 1598.76 1135.14C1603.89 1117.31 1608.15 1110.19 1613.99 1102.7C1614.32 1102.27 1615.74 1101.31 1616.07 1100.92C1616.6 1100.31 1616.82 1099.6 1617.35 1099.08Z" fill="#1792a8" fill-rule="nonzero" filter="url(#Filter_3)" stroke="none" vectornator:layerName="Curve 3" vectornator:shadowAngle="1.5708" vectornator:shadowColor="#1792a8" vectornator:shadowOffset="0" vectornator:shadowOpacity="1" vectornator:shadowRadius="26"/>
</g>
<g opacity="1" vectornator:layerName="Group 3">
<path d="M1828 1227.8C1828 1219.19 1834.98 1212.21 1843.59 1212.21C1852.21 1212.21 1859.19 1219.19 1859.19 1227.8C1859.19 1236.42 1852.21 1243.4 1843.59 1243.4C1834.98 1243.4 1828 1236.42 1828 1227.8Z" fill="#1792a8" fill-rule="nonzero" filter="url(#Filter_4)" stroke="none" vectornator:layerName="Oval 3" vectornator:shadowAngle="1.5708" vectornator:shadowColor="#b7dfe6" vectornator:shadowOffset="0" vectornator:shadowOpacity="1" vectornator:shadowRadius="17"/>
<path d="M1395.39 1203.2C1402.99 1199.14 1412.43 1202.01 1416.49 1209.61C1420.55 1217.2 1417.68 1226.65 1410.09 1230.71C1402.49 1234.77 1393.04 1231.9 1388.99 1224.3C1384.93 1216.71 1387.8 1207.26 1395.39 1203.2Z" fill="#1792a8" fill-rule="nonzero" filter="url(#Filter_5)" stroke="none" vectornator:layerName="Oval 2" vectornator:shadowAngle="1.5708" vectornator:shadowColor="#b7dfe6" vectornator:shadowOffset="0" vectornator:shadowOpacity="1" vectornator:shadowRadius="17"/>
<path d="M1829.74 1478.36C1837.34 1474.31 1846.79 1477.17 1850.84 1484.77C1854.9 1492.36 1852.03 1501.81 1844.44 1505.87C1836.84 1509.93 1827.39 1507.06 1823.34 1499.46C1819.28 1491.87 1822.15 1482.42 1829.74 1478.36Z" fill="#1792a8" fill-rule="nonzero" filter="url(#Filter_6)" stroke="none" vectornator:layerName="Oval 3" vectornator:shadowAngle="1.5708" vectornator:shadowColor="#b7dfe6" vectornator:shadowOffset="0" vectornator:shadowOpacity="1" vectornator:shadowRadius="17"/>
<path d="M1628.05 1083.9C1635.53 1088.15 1638.15 1097.67 1633.89 1105.16C1629.63 1112.64 1620.11 1115.26 1612.63 1111C1605.14 1106.75 1602.53 1097.23 1606.78 1089.74C1611.04 1082.25 1620.56 1079.64 1628.05 1083.9Z" fill="#1792a8" fill-rule="nonzero" filter="url(#Filter_7)" stroke="none" vectornator:layerName="Oval 2" vectornator:shadowAngle="1.5708" vectornator:shadowColor="#b7dfe6" vectornator:shadowOffset="0" vectornator:shadowOpacity="1" vectornator:shadowRadius="17"/>
<path d="M1627.2 1598.07C1634.69 1602.33 1637.3 1611.85 1633.04 1619.33C1628.79 1626.82 1619.27 1629.43 1611.78 1625.18C1604.3 1620.92 1601.68 1611.4 1605.94 1603.91C1610.19 1596.43 1619.71 1593.81 1627.2 1598.07Z" fill="#1792a8" fill-rule="nonzero" filter="url(#Filter_8)" stroke="none" vectornator:layerName="Oval 3" vectornator:shadowAngle="1.5708" vectornator:shadowColor="#b7dfe6" vectornator:shadowOffset="0" vectornator:shadowOpacity="1" vectornator:shadowRadius="17"/>
<path d="M1408.34 1465.41C1415.82 1469.67 1418.44 1479.19 1414.18 1486.67C1409.92 1494.16 1400.4 1496.78 1392.92 1492.52C1385.43 1488.26 1382.82 1478.74 1387.07 1471.26C1391.33 1463.77 1400.85 1461.15 1408.34 1465.41Z" fill="#1792a8" fill-rule="nonzero" filter="url(#Filter_9)" stroke="none" vectornator:layerName="Oval 4" vectornator:shadowAngle="1.5708" vectornator:shadowColor="#b7dfe6" vectornator:shadowOffset="0" vectornator:shadowOpacity="1" vectornator:shadowRadius="17"/>
</g>
<path d="M1592.56 1352.59C1592.56 1336.93 1605.25 1324.24 1620.91 1324.24C1636.57 1324.24 1649.26 1336.93 1649.26 1352.59C1649.26 1368.25 1636.57 1380.94 1620.91 1380.94C1605.25 1380.94 1592.56 1368.25 1592.56 1352.59Z" fill="#1792a8" fill-rule="nonzero" filter="url(#Filter_10)" stroke="none" vectornator:layerName="Oval 1" vectornator:shadowAngle="1.5708" vectornator:shadowColor="#9bccd5" vectornator:shadowOffset="0" vectornator:shadowOpacity="1" vectornator:shadowRadius="17"/>
</g>
</g>
</svg>
